<svg width="13" height="16" viewBox="0 0 13 16" fill="none" xmlns="http://www.w3.org/2000/svg">
<path d="M12.127 4.96875V13.875C12.127 14.9105 11.2315 15.75 10.127 15.75H2.12695C1.02238 15.75 0.126953 14.9105 0.126953 13.875V2.625C0.126953 1.58947 1.02238 0.75 2.12695 0.75H7.62695L12.127 4.96875ZM9.12695 4.96875C8.29853 4.96875 7.62695 4.33915 7.62695 3.5625V1.6875H2.12695C1.57467 1.6875 1.12695 2.10723 1.12695 2.625V13.875C1.12695 14.3928 1.57467 14.8125 2.12695 14.8125H10.127C10.6792 14.8125 11.127 14.3928 11.127 13.875V4.96875H9.12695Z" fill="#979797"/>
<path d="M3.27629 6.375C3.77406 6.42167 4.36518 6.445 5.04962 6.445C5.73406 6.445 6.22562 6.42167 6.52429 6.375C6.56162 6.39833 6.58029 6.46833 6.58029 6.585C6.58029 6.69 6.56162 6.76 6.52429 6.795C6.32518 6.795 6.17584 6.83 6.07629 6.9C5.98918 6.95833 5.94562 7.005 5.94562 7.04C5.94562 7.08667 5.98295 7.145 6.05762 7.215L6.86029 8.16C6.9474 8.06667 7.04695 7.9675 7.15895 7.8625C7.27095 7.74583 7.37673 7.635 7.47629 7.53C7.68784 7.30833 7.79362 7.16833 7.79362 7.11C7.79362 7.04 7.75006 6.98167 7.66295 6.935C7.58829 6.88833 7.50118 6.85333 7.40162 6.83C7.23984 6.80667 7.08429 6.795 6.93495 6.795C6.89762 6.77167 6.87895 6.7075 6.87895 6.6025C6.87895 6.48583 6.8914 6.41 6.91629 6.375C7.28962 6.42167 7.62562 6.445 7.92429 6.445C8.2354 6.445 8.46562 6.445 8.61495 6.445C8.77673 6.43333 8.92606 6.4275 9.06295 6.4275C9.21229 6.41583 9.34295 6.40417 9.45495 6.3925C9.56695 6.38083 9.64784 6.375 9.69762 6.375C9.72251 6.39833 9.73495 6.4625 9.73495 6.5675C9.73495 6.6725 9.72251 6.74833 9.69762 6.795C9.27451 6.795 8.93229 6.9175 8.67095 7.1625C8.4594 7.38417 8.24784 7.60583 8.03629 7.8275C7.82473 8.04917 7.5634 8.32333 7.25229 8.65L9.00695 10.715C9.1314 10.8783 9.28695 10.9833 9.47362 11.03C9.66029 11.0767 9.77851 11.1 9.82829 11.1C9.87806 11.1583 9.89673 11.24 9.88429 11.345C9.88429 11.4383 9.87184 11.5025 9.84695 11.5375C9.59806 11.5025 9.31184 11.485 8.98829 11.485C8.66473 11.4733 8.27895 11.4675 7.83095 11.4675C7.3954 11.4558 6.97229 11.4792 6.56162 11.5375C6.53673 11.5025 6.52429 11.4325 6.52429 11.3275C6.52429 11.2108 6.53673 11.135 6.56162 11.1C6.63629 11.1 6.75451 11.0825 6.91629 11.0475C7.07806 11.0125 7.15895 10.9483 7.15895 10.855C7.15895 10.8317 7.14651 10.8083 7.12162 10.785C7.09673 10.75 7.07184 10.715 7.04695 10.68L6.16962 9.6825C6.08251 9.77583 5.97673 9.88083 5.85229 9.9975C5.74029 10.1025 5.63451 10.2075 5.53495 10.3125C5.27362 10.5692 5.14295 10.7325 5.14295 10.8025C5.14295 10.8608 5.18029 10.9133 5.25495 10.96C5.34206 11.0067 5.4354 11.0417 5.53495 11.065C5.69673 11.0883 5.85851 11.1 6.02029 11.1C6.04518 11.135 6.05762 11.205 6.05762 11.31C6.05762 11.415 6.04518 11.4908 6.02029 11.5375C5.58473 11.4792 5.22384 11.45 4.93762 11.45C4.66384 11.45 4.44606 11.4558 4.28429 11.4675C4.12251 11.4675 3.96695 11.4733 3.81762 11.485C3.66829 11.4967 3.5314 11.5025 3.40695 11.5025C3.29495 11.5142 3.21406 11.5258 3.16429 11.5375C3.1394 11.5025 3.12695 11.4325 3.12695 11.3275C3.12695 11.2225 3.1394 11.1467 3.16429 11.1C3.27629 11.1 3.43806 11.0708 3.64962 11.0125C3.87362 10.9425 4.06029 10.8433 4.20962 10.715C4.50829 10.4467 4.7634 10.2017 4.97495 9.98C5.19895 9.74667 5.46029 9.48417 5.75895 9.1925L4.13495 7.1625C4.01051 7.01083 3.84873 6.91167 3.64962 6.865C3.46295 6.81833 3.34473 6.795 3.29495 6.795C3.24518 6.74833 3.22029 6.67833 3.22029 6.585C3.23273 6.48 3.2514 6.41 3.27629 6.375Z" fill="#979797"/>
</svg>
